<?xml version="1.0" standalone="no"?>
<!DOCTYPE svg PUBLIC "-//W3C//DTD SVG 20010904//EN"
 "http://www.w3.org/TR/2001/REC-SVG-20010904/DTD/svg10.dtd">
<svg version="1.0" xmlns="http://www.w3.org/2000/svg"
 width="315.000000pt" height="258.000000pt" viewBox="0 0 315.000000 258.000000"
 preserveAspectRatio="xMidYMid meet">

<g transform="translate(0.000000,258.000000) scale(0.100000,-0.100000)"
fill="#000000" stroke="none">
<path d="M1770 1873 c0 -18 2 -33 4 -33 9 0 13 39 5 51 -6 10 -9 4 -9 -18z"/>
<path d="M2081 1844 c2 -45 -2 -59 -19 -77 -26 -25 -38 -17 -22 13 8 15 8 20
1 16 -7 -5 -11 2 -11 18 0 32 17 43 23 14 4 -22 4 -22 5 2 1 14 -2 31 -7 38
-13 21 -41 -59 -35 -100 5 -30 -1 -39 -51 -91 -32 -32 -60 -56 -63 -53 -3 3
-6 16 -7 29 -1 16 -8 22 -28 22 l-26 1 25 -23 c13 -12 24 -31 24 -43 0 -17 -7
-20 -42 -21 -24 -1 -34 -4 -23 -6 11 -3 26 -10 33 -16 9 -7 16 -7 24 1 7 7 20
12 30 12 10 0 15 5 12 14 -3 7 29 48 76 97 98 102 102 108 99 164 -4 65 -20
55 -18 -11z"/>
<path d="M1884 1825 c-12 -25 -17 -48 -12 -51 4 -3 17 16 28 41 22 52 23 55
13 55 -5 0 -17 -20 -29 -45z"/>
<path d="M1242 1848 c-5 -7 -19 -31 -30 -53 -11 -22 -51 -65 -90 -98 -66 -55
-121 -108 -94 -93 6 4 12 2 12 -4 0 -6 -29 -25 -66 -42 -46 -21 -64 -35 -62
-47 2 -9 10 -16 18 -16 8 0 21 -4 28 -8 8 -5 31 5 61 27 56 41 94 52 134 37
28 -11 36 -35 15 -44 -7 -2 -47 -10 -88 -17 -58 -10 -90 -23 -140 -55 -64 -42
-110 -80 -110 -92 0 -3 15 6 33 20 67 54 153 101 197 109 126 21 133 22 128 7
-3 -9 -21 -15 -49 -16 -24 -1 -70 -10 -101 -21 -64 -23 -168 -86 -168 -102 0
-6 25 7 56 29 50 36 109 60 120 48 2 -2 -22 -18 -54 -35 -132 -71 -85 -80 70
-14 135 58 201 75 262 69 107 -12 183 -26 241 -46 32 -11 63 -17 67 -15 4 3 8
1 8 -4 0 -18 -38 -42 -67 -42 -22 0 -46 -13 -81 -42 -47 -40 -49 -43 -29 -50
71 -20 90 -8 179 114 10 13 34 19 93 23 95 8 138 -10 170 -67 18 -34 88 -78
102 -64 6 5 -39 26 -57 26 -13 0 -39 41 -34 54 6 16 -67 55 -145 75 -37 10
-81 25 -97 35 -16 9 -56 25 -89 34 -33 10 -55 21 -50 24 10 6 100 -22 190 -60
54 -22 179 -58 235 -66 19 -3 4 5 -33 17 -121 40 -81 57 145 63 156 4 228 18
228 44 0 6 -12 3 -27 -7 -23 -15 -50 -18 -174 -18 -81 0 -150 3 -154 7 -13 13
36 48 77 54 43 6 164 70 188 98 19 24 6 19 -54 -19 -83 -53 -211 -96 -218 -73
-2 5 -24 -2 -48 -16 -48 -28 -60 -31 -60 -17 0 5 17 16 38 24 20 9 46 23 57
32 11 9 -3 4 -32 -10 -59 -28 -101 -32 -109 -10 -4 8 -12 15 -20 15 -13 0 -18
12 -15 33 1 4 -6 10 -14 13 -20 8 -9 24 17 24 14 0 18 -5 14 -15 -3 -9 0 -15
9 -15 19 0 19 14 0 30 -12 10 -9 19 26 60 41 49 46 80 9 60 -35 -19 -43 -12
-37 29 9 67 -10 67 -22 0 -11 -62 -7 -86 8 -60 5 7 19 11 32 9 23 -3 23 -4
-15 -45 -38 -43 -64 -56 -52 -28 21 52 21 51 -2 31 -21 -18 -21 -18 -38 23
-18 46 -38 61 -82 61 -16 0 -41 10 -56 21 -15 12 -30 19 -33 15 -11 -11 72
-94 116 -116 24 -11 45 -30 48 -40 3 -11 9 -17 14 -14 5 3 9 -2 9 -11 0 -11
-8 -15 -30 -13 -16 1 -30 7 -30 13 0 6 -27 25 -60 43 -33 19 -60 29 -60 23 0
-6 19 -20 43 -33 41 -21 41 -22 17 -29 -35 -10 -60 -10 -35 1 22 9 22 9 -48
30 -50 16 -59 5 -13 -14 45 -19 47 -31 4 -22 -18 4 -49 23 -70 43 -21 20 -41
33 -45 29 -4 -4 12 -25 35 -46 23 -22 42 -44 42 -50 0 -22 -42 -9 -71 23 -28
30 -29 30 -13 4 23 -38 13 -44 -14 -7 -18 23 -20 34 -12 55 13 35 13 35 -12
35 -16 0 -28 -11 -39 -33 -9 -17 -27 -37 -40 -44 -36 -17 -108 -37 -115 -31
-5 5 58 38 97 51 16 5 51 68 43 76 -3 3 -9 -1 -14 -9 -5 -8 -12 -11 -16 -8 -4
4 -15 3 -25 -3 -13 -6 -19 -6 -19 0 0 6 -7 8 -15 5 -10 -4 -13 -2 -10 8 13 34
145 72 161 46 4 -6 12 3 20 22 8 18 12 36 9 40 -3 5 1 10 7 13 7 2 1 4 -14 3
-18 -1 -28 -7 -28 -16 0 -10 -3 -11 -8 -4 -4 6 -18 10 -32 9 -38 -3 -53 5 -39
21 6 8 9 14 6 14 -2 0 -9 -6 -15 -12z m402 -119 c14 -11 26 -27 26 -36 0 -21
-47 -9 -78 20 -21 20 -22 22 -5 28 27 11 28 11 57 -12z m-561 -106 c-7 -2 -19
-2 -25 0 -7 3 -2 5 12 5 14 0 19 -2 13 -5z m247 -12 c0 -15 54 -63 88 -78 17
-7 32 -16 32 -18 0 -3 -30 -3 -67 -1 -57 4 -61 4 -23 -3 25 -5 69 -12 99 -16
42 -6 49 -10 36 -18 -12 -6 -40 -5 -86 3 -37 7 -81 10 -98 7 -16 -4 -33 -2
-36 3 -3 6 4 10 17 10 18 0 13 5 -19 20 -50 22 -53 34 -15 54 16 8 34 22 41
30 15 17 31 21 31 7z m300 4 c0 -3 -10 -10 -22 -15 l-23 -9 22 0 c27 -1 40
-20 22 -31 -13 -8 -69 17 -69 31 0 7 40 27 58 28 6 1 12 -1 12 -4z m-145 -15
c3 -5 2 -10 -4 -10 -5 0 -13 5 -16 10 -3 6 -2 10 4 10 5 0 13 -4 16 -10z
m-375 -10 c-19 -13 -30 -13 -30 0 0 6 10 10 23 10 18 0 19 -2 7 -10z m595 -10
c-3 -5 -11 -10 -16 -10 -6 0 -7 5 -4 10 3 6 11 10 16 10 6 0 7 -4 4 -10z
m-146 -16 c22 -8 42 -22 45 -30 4 -11 10 -12 25 -4 11 5 27 7 35 4 19 -7 19
-9 6 -34 -8 -15 -2 -21 42 -40 44 -19 56 -20 94 -11 23 6 58 10 76 10 l33 -1
-40 -9 c-105 -24 -131 -23 -187 9 -30 16 -62 31 -73 33 -10 2 -17 8 -16 13 1
5 -6 14 -17 20 -11 6 -37 21 -58 33 -46 26 -23 31 35 7z m-50 -17 c73 -42 20
-46 -66 -5 -24 11 -43 22 -43 24 0 13 74 0 109 -19z m239 -6 c36 -31 53 -81
28 -81 -9 0 -13 7 -11 19 3 17 0 18 -25 8 -16 -6 -32 -8 -36 -5 -10 11 6 28
27 28 11 0 17 5 14 10 -3 6 -15 10 -26 10 -11 0 -30 5 -42 12 l-22 12 25 7
c14 4 27 7 30 8 3 0 20 -12 38 -28z m-734 7 c-5 -8 -1 -9 12 -5 11 4 5 -5 -15
-23 -19 -16 -37 -27 -40 -24 -3 3 5 14 19 24 31 24 24 25 -19 4 -46 -23 -50
-9 -4 15 44 23 57 26 47 9z m204 0 c17 -17 15 -28 -7 -28 -19 0 -35 23 -24 34
9 9 18 7 31 -6z m42 -69 c0 -8 13 -10 38 -6 20 3 55 2 77 -2 226 -47 235 -49
235 -62 0 -13 -35 -11 -77 6 -49 19 -165 39 -228 38 -59 0 -177 -34 -259 -75
-79 -40 -82 -28 -4 16 35 20 57 36 50 36 -7 0 -10 5 -7 10 3 6 18 10 33 10 22
0 24 -2 12 -11 -11 -7 -6 -8 20 -3 49 9 109 32 87 33 -10 1 -15 6 -12 11 8 14
35 13 35 -1z m445 -80 c5 -6 3 -9 -7 -9 -24 0 -48 11 -48 22 0 10 39 1 55 -13z
m-138 -95 c2 -5 -14 -17 -34 -27 -21 -10 -28 -16 -15 -13 15 3 22 0 19 -7 -6
-19 -37 -20 -44 -1 -4 12 3 24 23 41 29 23 45 25 51 7z"/>
<path d="M2065 1681 c-6 -19 -50 -63 -95 -94 -13 -9 -21 -17 -16 -17 5 0 3 -7
-4 -15 -7 -9 19 1 57 22 59 31 70 41 70 63 0 14 3 33 7 43 5 10 4 17 -2 17 -6
0 -13 -8 -17 -19z"/>
<path d="M1820 1620 c-12 -8 -11 -10 8 -10 12 0 22 5 22 10 0 13 -11 13 -30 0z"/>
<path d="M1790 1566 c0 -2 7 -6 15 -10 8 -3 15 -1 15 4 0 6 -7 10 -15 10 -8 0
-15 -2 -15 -4z"/>
<path d="M2155 1361 c-6 -5 -23 -11 -40 -14 -27 -4 -26 -4 8 -6 40 -1 46 -11
21 -35 -21 -22 -46 -20 -78 5 -21 17 -25 24 -14 30 10 7 9 9 -4 9 -9 0 -24 3
-34 7 -28 10 -8 -14 38 -48 54 -39 83 -38 108 4 28 45 24 76 -5 48z"/>
<path d="M1945 1318 c11 -6 23 -16 27 -22 5 -7 8 -8 8 0 0 15 -22 34 -39 34
-12 -1 -11 -4 4 -12z"/>
<path d="M1067 1060 c3 -11 9 -20 13 -20 5 0 32 -33 62 -72 51 -69 53 -71 56
-44 2 16 0 32 -5 35 -5 3 -29 32 -52 64 -43 57 -85 78 -74 37z"/>
<path d="M1188 1068 c9 -9 15 -9 24 0 9 9 7 12 -12 12 -19 0 -21 -3 -12 -12z"/>
<path d="M1260 1065 c8 -10 11 -41 8 -95 -3 -70 -1 -80 14 -80 14 0 17 14 20
95 l3 95 -29 0 c-24 0 -27 -2 -16 -15z"/>
<path d="M1340 1076 c0 -2 9 -6 20 -9 11 -3 20 -1 20 4 0 5 -9 9 -20 9 -11 0
-20 -2 -20 -4z"/>
<path d="M1436 1064 c-9 -8 -16 -22 -16 -30 0 -16 47 -64 61 -64 5 0 18 -9 29
-20 17 -17 18 -24 9 -41 -15 -29 9 -21 29 9 13 20 12 24 -16 49 -17 16 -43 38
-59 50 -25 19 -27 24 -15 42 14 25 0 28 -22 5z"/>
<path d="M1524 1061 c21 -23 26 -26 26 -11 0 5 -10 15 -22 21 -23 12 -23 12
-4 -10z"/>
<path d="M1580 1063 c0 -13 3 -14 12 -5 7 7 21 12 31 12 18 0 19 -7 15 -90 -3
-85 -2 -90 17 -90 19 0 20 6 17 90 -3 82 -2 90 15 90 11 0 24 -5 31 -12 9 -9
12 -8 12 5 0 14 -11 17 -75 17 -64 0 -75 -3 -75 -17z"/>
<path d="M1765 985 c0 -88 1 -95 20 -95 19 0 20 6 17 81 -2 52 1 85 8 95 10
12 8 14 -16 14 l-29 0 0 -95z"/>
<path d="M1916 1072 c6 -4 23 -27 38 -51 22 -34 27 -53 24 -87 -3 -39 -1 -44
18 -44 20 0 21 4 17 48 -2 26 -13 64 -24 84 -11 21 -17 42 -14 48 4 6 -9 10
-32 10 -21 0 -33 -4 -27 -8z"/>
<path d="M2050 1071 c0 -5 9 -7 20 -4 11 3 20 7 20 9 0 2 -9 4 -20 4 -11 0
-20 -4 -20 -9z"/>
<path d="M1342 991 c-10 -6 -9 -10 7 -14 14 -3 21 0 21 9 0 16 -9 18 -28 5z"/>
<path d="M1420 920 c0 -5 10 -15 23 -21 22 -12 22 -12 3 10 -21 23 -26 26 -26
11z"/>
<path d="M1360 904 c-24 -13 -24 -14 -4 -14 12 0 24 7 28 15 3 8 4 15 3 14 -1
-1 -13 -7 -27 -15z"/>
<path d="M1866 905 c-19 -15 -19 -15 2 -15 13 0 22 6 22 15 0 18 0 18 -24 0z"/>
<path d="M1065 900 c-3 -5 1 -10 10 -10 9 0 13 5 10 10 -3 6 -8 10 -10 10 -2
0 -7 -4 -10 -10z"/>
<path d="M710 757 c0 -26 4 -47 8 -47 9 0 6 80 -3 88 -3 3 -5 -16 -5 -41z"/>
<path d="M830 755 c0 -25 5 -45 10 -45 6 0 10 20 10 45 0 25 -4 45 -10 45 -5
0 -10 -20 -10 -45z"/>
<path d="M930 794 c1 -17 60 -79 60 -63 0 8 -13 28 -30 44 -16 16 -30 25 -30
19z"/>
<path d="M1070 755 c0 -25 5 -45 10 -45 6 0 10 20 10 45 0 25 -4 45 -10 45 -5
0 -10 -20 -10 -45z"/>
<path d="M1325 774 c9 -14 15 -35 12 -45 -3 -12 0 -19 8 -19 8 0 11 8 8 23 -7
33 -25 67 -36 67 -5 0 -2 -12 8 -26z"/>
<path d="M1590 766 c0 -18 6 -38 13 -44 9 -8 11 -1 8 34 -4 51 -21 60 -21 10z"/>
<path d="M1735 755 c0 -25 3 -45 8 -45 4 0 7 20 7 45 0 25 -3 45 -7 45 -5 0
-8 -20 -8 -45z"/>
<path d="M1980 795 c1 -15 59 -82 60 -67 0 7 -13 27 -30 45 -16 18 -30 28 -30
22z"/>
<path d="M2120 757 c0 -26 4 -47 8 -47 10 0 10 76 0 86 -5 4 -8 -14 -8 -39z"/>
<path d="M2399 798 c-5 -25 -3 -88 3 -88 4 0 8 20 8 45 0 25 -2 45 -5 45 -3 0
-5 -1 -6 -2z"/>
<path d="M1124 755 c0 -19 4 -31 8 -29 4 3 8 16 8 29 0 13 -4 26 -8 29 -4 2
-8 -10 -8 -29z"/>
<path d="M1447 783 c-12 -11 -8 -50 6 -61 10 -8 12 -2 9 29 -4 41 -5 43 -15
32z"/>
<path d="M1508 765 c2 -14 -2 -33 -9 -43 -13 -15 -12 -16 4 -3 18 14 23 56 8
65 -4 3 -6 -6 -3 -19z"/>
<path d="M1776 764 c-5 -19 -2 -32 10 -43 15 -15 16 -14 6 5 -8 15 -8 24 0 32
9 9 9 15 1 23 -7 7 -12 3 -17 -17z"/>
<path d="M2245 780 c-3 -5 5 -16 19 -25 14 -9 26 -24 28 -33 3 -15 4 -15 10
-1 7 18 -48 74 -57 59z"/>
</g>
</svg>
